<svg width="512" height="512" viewBox="0 0 512 512" fill="none" xmlns="http://www.w3.org/2000/svg">
<rect width="512" height="512" rx="256" fill="white"/>
<path d="M439.337 363.584C434.398 372.15 425.358 376.938 416.15 376.938C411.556 376.938 406.908 375.757 402.647 373.263L381.645 360.968L386.147 378.008C388.988 388.767 382.585 399.819 371.85 402.649C370.122 403.122 368.394 403.332 366.69 403.332C357.792 403.332 349.647 397.374 347.261 388.349L332.411 332.147L282.299 302.779L282.299 361.988L322.798 403.04C330.614 410.966 330.536 423.717 322.641 431.544C318.712 435.475 313.606 437.406 308.5 437.406C303.316 437.406 298.128 435.412 294.202 431.422L282.299 419.354V444.125C282.299 458.982 270.295 471 255.487 471C240.679 471 228.675 458.982 228.675 444.125L228.675 419.35L216.771 431.418C208.968 439.345 196.238 439.397 188.336 431.576C180.44 423.755 180.362 410.999 188.179 403.071L228.677 362.02L227.972 302.779L177.855 332.115L163.005 388.317C160.621 397.346 152.475 403.3 143.577 403.3C141.873 403.3 140.145 403.09 138.417 402.618C127.685 399.783 121.282 388.735 124.119 377.977L128.622 360.936L107.619 373.232C104.091 375.762 99.4452 376.938 94.8496 376.938C85.6333 376.938 76.6513 372.16 71.6706 363.601C64.1937 350.793 68.5022 334.341 81.2971 326.858L103.028 314.134L86.01 309.508C75.2868 306.643 68.9668 295.557 71.8715 284.807C74.7762 274.057 85.7756 267.758 96.5405 270.613L151.713 285.646L202.357 256L151.713 226.354L96.5405 241.387C94.7734 241.859 93.0038 242.095 91.2627 242.095C82.4147 242.095 74.2949 236.19 71.8757 227.213C68.9668 216.443 75.2868 205.441 86.01 202.502L103.028 197.876L81.2971 185.117C68.5064 177.638 64.1954 161.182 71.6706 148.374C79.1082 135.541 95.5277 131.208 108.343 138.716L129.346 151.011L124.843 133.971C122.005 123.229 128.442 112.177 138.403 109.346C149.955 106.432 160.168 112.916 163.767 123.649L178.617 179.851L227.972 209.221L227.972 150.012L188.21 108.927C180.425 100.998 180.425 88.2412 188.378 80.4223C196.246 72.5697 208.97 72.6789 216.839 80.5818L228.742 92.6504L227.972 67.875C227.972 53.0182 239.976 41 254.784 41C269.592 41 281.596 53.0182 281.596 67.875L281.596 92.6504L293.499 80.5818C301.29 72.6823 314.016 72.5773 321.935 80.4244C329.831 88.245 329.909 101.001 322.092 108.929L281.594 149.98L282.299 209.221L332.416 179.885L347.265 123.683C350.107 112.949 361.128 106.466 371.859 109.38C382.591 112.215 388.994 123.263 386.157 134.021L381.654 151.062L402.657 138.766C415.447 131.287 431.879 135.617 439.329 148.424C446.806 161.232 442.498 177.685 429.703 185.168L407.972 197.891L424.99 202.517C435.713 205.43 442.042 216.509 439.129 227.242C436.705 236.22 428.59 242.124 419.742 242.124C418 242.124 416.232 241.888 414.464 241.415L358.558 226.354L308.667 256L359.278 285.63L414.484 270.622C425.274 267.758 436.24 274.057 439.17 284.807C442.077 295.54 435.753 306.617 425.031 309.532L408.013 314.157L429.744 326.881C442.518 334.357 446.787 350.818 439.337 363.584Z" fill="#2563EB"/>
</svg>
